# Blender v2.76 (sub 0) OBJ File: ''
# www.blender.org
mtllib trafficLight1.mtl
o SketchUp.001_ID251
v -0.046654 0.000000 -0.017983
v -0.049395 0.000000 0.007754
v -0.049719 0.000000 -0.005295
v -0.045705 0.000000 0.020274
v -0.040410 0.000000 -0.029445
v -0.038901 0.000000 0.031412
v -0.031412 0.000000 -0.038901
v -0.029445 0.000000 0.040410
v -0.020274 0.000000 -0.045705
v -0.017983 0.000000 0.046654
v -0.007754 0.000000 -0.049395
v -0.005295 0.000000 0.049719
v 0.005295 0.000000 -0.049719
v 0.007754 0.000000 0.049395
v 0.017983 0.000000 -0.046654
v 0.020274 0.000000 0.045705
v 0.029445 0.000000 -0.040410
v 0.031412 0.000000 0.038901
v 0.038901 0.000000 -0.031412
v 0.040410 0.000000 0.029445
v 0.045705 0.000000 -0.020274
v 0.046654 0.000000 0.017983
v 0.049395 0.000000 -0.007754
v 0.049719 0.000000 0.005295
vn 0.000000 -1.000000 0.000000
usemtl material
s off
f 1//1 2//1 3//1
f 2//1 1//1 4//1
f 4//1 1//1 5//1
f 4//1 5//1 6//1
f 6//1 5//1 7//1
f 6//1 7//1 8//1
f 8//1 7//1 9//1
f 8//1 9//1 10//1
f 10//1 9//1 11//1
f 10//1 11//1 12//1
f 12//1 11//1 13//1
f 12//1 13//1 14//1
f 14//1 13//1 15//1
f 14//1 15//1 16//1
f 16//1 15//1 17//1
f 16//1 17//1 18//1
f 18//1 17//1 19//1
f 18//1 19//1 20//1
f 20//1 19//1 21//1
f 20//1 21//1 22//1
f 22//1 21//1 23//1
f 22//1 23//1 24//1
o SketchUp_ID245
v 0.049719 0.000000 0.005295
v 0.046654 3.650000 0.017983
v 0.046654 0.000000 0.017983
v 0.049719 3.650000 0.005295
v -0.049395 3.650000 0.007754
v -0.046654 3.650000 -0.017983
v -0.049719 3.650000 -0.005295
v -0.045705 3.650000 0.020274
v -0.040410 3.650000 -0.029445
v -0.038901 3.650000 0.031412
v -0.031412 3.650000 -0.038901
v -0.029445 3.650000 0.040410
v -0.020274 3.650000 -0.045705
v -0.017983 3.650000 0.046654
v -0.007754 3.650000 -0.049395
v -0.005295 3.650000 0.049719
v 0.005295 3.650000 -0.049719
v 0.007754 3.650000 0.049395
v 0.017983 3.650000 -0.046654
v 0.020274 3.650000 0.045705
v 0.029445 3.650000 -0.040410
v 0.031412 3.650000 0.038901
v 0.038901 3.650000 -0.031412
v 0.040410 3.650000 0.029445
v 0.045705 3.650000 -0.020274
v 0.046654 3.650000 0.017983
v 0.049395 3.650000 -0.007754
v 0.049719 3.650000 0.005295
v 0.040410 3.650000 0.029445
v 0.040410 0.000000 0.029445
v 0.049395 0.000000 -0.007754
v 0.049395 3.650000 -0.007754
v 0.017983 3.650000 -0.046654
v 0.029445 0.000000 -0.040410
v 0.017983 0.000000 -0.046654
v 0.029445 3.650000 -0.040410
v 0.005303 3.065000 -0.049737
v 0.012497 2.600002 -0.047978
v 0.005292 2.600000 -0.049719
v 0.005304 2.500000 -0.049737
v 0.005295 0.000000 -0.049719
v 0.012509 2.500001 -0.047979
v 0.005291 3.165000 -0.049719
v 0.005295 3.650000 -0.049719
v -0.007754 3.650000 -0.049395
v -0.007757 3.165000 -0.049395
v -0.007745 2.499999 -0.049413
v -0.007754 0.000000 -0.049395
v -0.012491 2.499999 -0.047997
v -0.020274 3.650000 -0.045705
v -0.020274 0.000000 -0.045705
v -0.012503 2.599997 -0.047996
v -0.007757 2.600000 -0.049395
v -0.007745 3.065000 -0.049413
v -0.031412 3.650000 -0.038901
v -0.031412 0.000000 -0.038901
v -0.040410 0.000000 -0.029445
v -0.040410 3.650000 -0.029445
v -0.046654 0.000000 -0.017983
v -0.046654 3.650000 -0.017983
v -0.049719 0.000000 -0.005295
v -0.049719 3.650000 -0.005295
v -0.049395 0.000000 0.007754
v -0.049395 3.650000 0.007754
v -0.045705 0.000000 0.020274
v -0.045705 3.650000 0.020274
v -0.038901 0.000000 0.031412
v -0.038901 3.650000 0.031412
v -0.029445 3.650000 0.040410
v -0.029445 0.000000 0.040410
v -0.017983 3.650000 0.046654
v -0.017983 0.000000 0.046654
v -0.005295 2.500000 0.049737
v -0.005295 0.000000 0.049719
v -0.012500 2.500000 0.047979
v -0.012500 2.600000 0.047979
v -0.005295 2.600000 0.049719
v -0.005295 3.454999 0.049737
v -0.005295 3.550000 0.049719
v -0.005295 3.554999 0.049719
v -0.005295 3.650000 0.049719
v 0.007754 3.650000 0.049395
v 0.007754 3.554999 0.049395
v 0.007754 2.500000 0.049413
v 0.007754 0.000000 0.049395
v 0.012500 2.500000 0.047996
v 0.020274 3.650000 0.045705
v 0.020274 0.000000 0.045705
v 0.012500 2.600000 0.047996
v 0.007754 2.600000 0.049395
v 0.007754 3.454999 0.049413
v 0.007754 3.550000 0.049395
v 0.031412 3.650000 0.038901
v 0.031412 0.000000 0.038901
v 0.045705 0.000000 -0.020274
v 0.045705 3.650000 -0.020274
v 0.038901 0.000000 -0.031412
v 0.038901 3.650000 -0.031412
vn 0.000000 1.000000 0.000000
vn 0.994400 0.000000 0.105900
vn 0.933100 0.000000 0.359600
vn 0.808200 0.000000 0.588900
vn 0.987900 0.000000 -0.155100
vn 0.359600 0.000000 -0.933100
vn 0.588900 0.000000 -0.808200
vn 0.150700 0.000000 -0.988600
vn 0.230900 0.000000 -0.973000
vn 0.105900 -0.000000 -0.994400
vn 0.107100 0.000000 -0.994200
vn 0.235800 0.000000 -0.971800
vn 0.144400 0.000100 -0.989500
vn -0.155100 0.000000 -0.987900
vn -0.194900 0.000100 -0.980800
vn -0.156700 0.000000 -0.987600
vn -0.283400 0.000000 -0.959000
vn -0.405500 0.000000 -0.914100
vn -0.285300 0.000000 -0.958400
vn -0.199800 -0.000000 -0.979800
vn -0.628200 0.000000 -0.778000
vn -0.808200 0.000000 -0.588900
vn -0.933100 0.000000 -0.359600
vn -0.994400 0.000000 -0.105900
vn -0.987900 0.000000 0.155100
vn -0.914100 0.000000 0.405500
vn -0.778000 0.000000 0.628200
vn -0.588900 0.000000 0.808200
vn -0.359600 0.000000 0.933100
vn -0.107000 0.000000 0.994200
vn -0.105900 0.000000 0.994400
vn -0.235500 0.000000 0.971900
vn -0.234800 0.000000 0.972000
vn -0.150400 0.000000 0.988600
vn -0.233500 0.000200 0.972400
vn -0.149400 0.000000 0.988800
vn 0.155100 0.000000 0.987900
vn 0.198200 0.000000 0.980100
vn 0.156700 0.000000 0.987600
vn 0.283800 0.000000 0.958900
vn 0.405400 0.000000 0.914100
vn 0.405500 0.000000 0.914100
vn 0.282700 0.000000 0.959200
vn 0.199200 0.000000 0.979900
vn 0.281400 0.000200 0.959600
vn 0.628200 0.000000 0.778000
vn 0.914100 0.000000 -0.405500
vn 0.778000 0.000000 -0.628200
usemtl __DarkGray_
s off
f 29//2 30//2 31//2
f 30//2 29//2 32//2
f 30//2 32//2 33//2
f 33//2 32//2 34//2
f 33//2 34//2 35//2
f 35//2 34//2 36//2
f 35//2 36//2 37//2
f 37//2 36//2 38//2
f 37//2 38//2 39//2
f 39//2 38//2 40//2
f 39//2 40//2 41//2
f 41//2 40//2 42//2
f 41//2 42//2 43//2
f 43//2 42//2 44//2
f 43//2 44//2 45//2
f 45//2 44//2 46//2
f 45//2 46//2 47//2
f 47//2 46//2 48//2
f 47//2 48//2 49//2
f 49//2 48//2 50//2
f 49//2 50//2 51//2
f 51//2 50//2 52//2
s 1
f 25//3 26//4 27//4
f 26//4 25//3 28//3
f 27//4 53//5 54//5
f 53//5 27//4 26//4
f 55//6 28//3 25//3
f 28//3 55//6 56//6
f 57//7 58//8 59//7
f 58//8 57//7 60//8
f 61//9 62//10 63//11
f 64//12 59//7 65//11
f 59//7 64//12 66//13
f 59//7 66//13 57//7
f 57//7 66//13 62//10
f 57//7 62//10 61//9
f 57//7 61//9 67//14
f 57//7 67//14 68//11
f 69//15 67//14 70//16
f 67//14 69//15 68//11
f 71//17 72//15 73//18
f 74//19 72//15 75//19
f 72//15 74//19 73//18
f 73//18 74//19 76//20
f 76//20 74//19 77//15
f 77//15 74//19 78//21
f 78//21 74//19 70//16
f 70//16 74//19 69//15
f 79//22 75//19 80//22
f 75//19 79//22 74//19
f 79//22 81//23 82//23
f 81//23 79//22 80//22
f 82//23 83//24 84//24
f 83//24 82//23 81//23
f 84//24 85//25 86//25
f 85//25 84//24 83//24
f 86//25 87//26 88//26
f 87//26 86//25 85//25
f 88//26 89//27 90//27
f 89//27 88//26 87//26
f 90//27 91//28 92//28
f 91//28 90//27 89//27
f 93//29 91//28 94//29
f 91//28 93//29 92//28
f 95//30 94//29 96//30
f 94//29 95//30 93//29
f 97//31 96//30 98//32
f 96//30 97//31 99//33
f 99//33 95//30 96//30
f 95//30 99//33 100//34
f 95//30 100//34 101//32
f 95//30 101//32 102//35
f 95//30 102//35 103//36
f 95//30 103//36 104//37
f 95//30 104//37 105//32
f 106//38 104//37 107//39
f 104//37 106//38 105//32
f 108//40 109//38 110//41
f 111//42 109//38 112//43
f 109//38 111//42 110//41
f 110//41 111//42 113//44
f 113//44 111//42 114//38
f 114//38 111//42 115//45
f 115//45 111//42 116//46
f 116//46 111//42 107//39
f 107//39 111//42 106//38
f 117//47 112//43 118//47
f 112//43 117//47 111//42
f 54//5 117//47 118//47
f 117//47 54//5 53//5
f 119//48 56//6 55//6
f 56//6 119//48 120//48
f 121//49 120//48 119//48
f 120//48 121//49 122//49
f 60//8 121//49 58//8
f 121//49 60//8 122//49
f 71//17 65//11 72//15
f 65//11 71//17 64//12
f 78//21 63//11 77//15
f 63//11 78//21 61//9
f 108//40 98//32 109//38
f 98//32 108//40 97//31
f 115//45 101//32 114//38
f 101//32 115//45 102//35
